<mxfile host="Electron" modified="2023-11-14T02:44:31.652Z" agent="Mozilla/5.0 (Windows NT 10.0; Win64; x64) AppleWebKit/537.36 (KHTML, like Gecko) draw.io/22.0.2 Chrome/114.0.5735.289 Electron/25.8.4 Safari/537.36" etag="2ySt7a6Wqwu7izeVOREd" version="22.0.2" type="device">
  <diagram name="Page-1" id="lepNQ0xWfPVt4rGql2F0">
    <mxGraphModel dx="-4891" dy="2316" grid="1" gridSize="10" guides="1" tooltips="1" connect="1" arrows="1" fold="1" page="1" pageScale="1" pageWidth="850" pageHeight="1100" math="0" shadow="0">
      <root>
        <mxCell id="0" />
        <mxCell id="1" parent="0" />
        <mxCell id="Wt4mTwQomMgk7ZBvd0Sg-3" value="" style="edgeStyle=orthogonalEdgeStyle;rounded=0;orthogonalLoop=1;jettySize=auto;html=1;fontColor=#007FFF;strokeColor=#007FFF;" parent="1" source="Wt4mTwQomMgk7ZBvd0Sg-1" edge="1">
          <mxGeometry relative="1" as="geometry">
            <mxPoint x="7240" y="-764" as="targetPoint" />
          </mxGeometry>
        </mxCell>
        <mxCell id="Wt4mTwQomMgk7ZBvd0Sg-1" value="START" style="strokeWidth=2;html=1;shape=mxgraph.flowchart.terminator;whiteSpace=wrap;fontColor=#007FFF;strokeColor=#007FFF;" parent="1" vertex="1">
          <mxGeometry x="7190" y="-860" width="100" height="60" as="geometry" />
        </mxCell>
        <mxCell id="Wt4mTwQomMgk7ZBvd0Sg-5" value="" style="edgeStyle=orthogonalEdgeStyle;rounded=0;orthogonalLoop=1;jettySize=auto;html=1;fontColor=#007FFF;strokeColor=#007FFF;exitX=0.5;exitY=1;exitDx=0;exitDy=0;" parent="1" source="eXYQYFFCsGSePUWTJ8JB-1" edge="1">
          <mxGeometry relative="1" as="geometry">
            <mxPoint x="7240" y="-714" as="sourcePoint" />
            <mxPoint x="7240.5" y="-680" as="targetPoint" />
          </mxGeometry>
        </mxCell>
        <mxCell id="eXYQYFFCsGSePUWTJ8JB-9" style="edgeStyle=orthogonalEdgeStyle;rounded=0;orthogonalLoop=1;jettySize=auto;html=1;exitX=0;exitY=0.5;exitDx=0;exitDy=0;strokeColor=#007FFF;fontColor=#007FFF;" edge="1" parent="1" source="Wt4mTwQomMgk7ZBvd0Sg-10">
          <mxGeometry relative="1" as="geometry">
            <mxPoint x="7010" y="-660" as="targetPoint" />
            <Array as="points">
              <mxPoint x="6940" y="-335" />
              <mxPoint x="6940" y="-660" />
            </Array>
          </mxGeometry>
        </mxCell>
        <mxCell id="Wt4mTwQomMgk7ZBvd0Sg-10" value="" style="ellipse;whiteSpace=wrap;html=1;rounded=0;fontColor=#007FFF;strokeColor=#007FFF;" parent="1" vertex="1">
          <mxGeometry x="7215.25" y="-360" width="49.5" height="50" as="geometry" />
        </mxCell>
        <mxCell id="Wt4mTwQomMgk7ZBvd0Sg-14" value="END" style="strokeWidth=2;html=1;shape=mxgraph.flowchart.terminator;whiteSpace=wrap;fontColor=#007FFF;strokeColor=#007FFF;" parent="1" vertex="1">
          <mxGeometry x="7190" y="-280" width="100" height="60" as="geometry" />
        </mxCell>
        <mxCell id="eXYQYFFCsGSePUWTJ8JB-13" style="edgeStyle=orthogonalEdgeStyle;rounded=0;orthogonalLoop=1;jettySize=auto;html=1;strokeColor=#007FFF;fontColor=#007FFF;" edge="1" parent="1" source="Wt4mTwQomMgk7ZBvd0Sg-16" target="eXYQYFFCsGSePUWTJ8JB-5">
          <mxGeometry relative="1" as="geometry" />
        </mxCell>
        <mxCell id="Wt4mTwQomMgk7ZBvd0Sg-16" value="kata_07746[j_07746]" style="rhombus;whiteSpace=wrap;html=1;fontColor=#007FFF;strokeColor=#007FFF;" parent="1" vertex="1">
          <mxGeometry x="7140" y="-530" width="200" height="60" as="geometry" />
        </mxCell>
        <mxCell id="eXYQYFFCsGSePUWTJ8JB-1" value="&lt;div&gt;kata_07746&lt;/div&gt;" style="shape=parallelogram;perimeter=parallelogramPerimeter;whiteSpace=wrap;html=1;fixedSize=1;fontColor=#007FFF;strokeColor=#007FFF;" vertex="1" parent="1">
          <mxGeometry x="7176" y="-760" width="128" height="40" as="geometry" />
        </mxCell>
        <mxCell id="eXYQYFFCsGSePUWTJ8JB-10" style="edgeStyle=orthogonalEdgeStyle;rounded=0;orthogonalLoop=1;jettySize=auto;html=1;entryX=1;entryY=0.5;entryDx=0;entryDy=0;entryPerimeter=0;strokeColor=#007FFF;fontColor=#007FFF;" edge="1" parent="1" source="eXYQYFFCsGSePUWTJ8JB-3" target="Wt4mTwQomMgk7ZBvd0Sg-14">
          <mxGeometry relative="1" as="geometry">
            <mxPoint x="7520" y="-270" as="targetPoint" />
            <Array as="points">
              <mxPoint x="7520" y="-660" />
              <mxPoint x="7520" y="-250" />
            </Array>
          </mxGeometry>
        </mxCell>
        <mxCell id="eXYQYFFCsGSePUWTJ8JB-12" style="edgeStyle=orthogonalEdgeStyle;rounded=0;orthogonalLoop=1;jettySize=auto;html=1;strokeColor=#007FFF;fontColor=#007FFF;" edge="1" parent="1" source="eXYQYFFCsGSePUWTJ8JB-3" target="eXYQYFFCsGSePUWTJ8JB-4">
          <mxGeometry relative="1" as="geometry" />
        </mxCell>
        <mxCell id="eXYQYFFCsGSePUWTJ8JB-3" value="&lt;div style=&quot;border-color: var(--border-color);&quot;&gt;&amp;nbsp;for (int i_07746 = 0; i_07746 &amp;lt; kata_07746.length(); i_07746++)&amp;nbsp;&lt;/div&gt;" style="shape=hexagon;perimeter=hexagonPerimeter2;whiteSpace=wrap;html=1;fixedSize=1;strokeColor=#007FFF;fontColor=#007FFF;" vertex="1" parent="1">
          <mxGeometry x="7015" y="-680" width="450" height="40" as="geometry" />
        </mxCell>
        <mxCell id="eXYQYFFCsGSePUWTJ8JB-8" style="edgeStyle=orthogonalEdgeStyle;rounded=0;orthogonalLoop=1;jettySize=auto;html=1;strokeColor=#007FFF;fontColor=#007FFF;" edge="1" parent="1" source="eXYQYFFCsGSePUWTJ8JB-4">
          <mxGeometry relative="1" as="geometry">
            <mxPoint x="7270" y="-340" as="targetPoint" />
            <Array as="points">
              <mxPoint x="7480" y="-590" />
              <mxPoint x="7480" y="-340" />
            </Array>
          </mxGeometry>
        </mxCell>
        <mxCell id="eXYQYFFCsGSePUWTJ8JB-11" style="edgeStyle=orthogonalEdgeStyle;rounded=0;orthogonalLoop=1;jettySize=auto;html=1;entryX=0.5;entryY=0;entryDx=0;entryDy=0;strokeColor=#007FFF;fontColor=#007FFF;" edge="1" parent="1" source="eXYQYFFCsGSePUWTJ8JB-4" target="Wt4mTwQomMgk7ZBvd0Sg-16">
          <mxGeometry relative="1" as="geometry" />
        </mxCell>
        <mxCell id="eXYQYFFCsGSePUWTJ8JB-4" value="&lt;div style=&quot;border-color: var(--border-color);&quot;&gt;&amp;nbsp;for (int j_07746 = 0; j_07746 &amp;lt;= i_07746; j_07746++)&amp;nbsp;&lt;br&gt;&lt;/div&gt;" style="shape=hexagon;perimeter=hexagonPerimeter2;whiteSpace=wrap;html=1;fixedSize=1;strokeColor=#007FFF;fontColor=#007FFF;" vertex="1" parent="1">
          <mxGeometry x="7015" y="-610" width="450" height="40" as="geometry" />
        </mxCell>
        <mxCell id="eXYQYFFCsGSePUWTJ8JB-7" style="edgeStyle=orthogonalEdgeStyle;rounded=0;orthogonalLoop=1;jettySize=auto;html=1;entryX=0;entryY=0.5;entryDx=0;entryDy=0;strokeColor=#007FFF;fontColor=#007FFF;" edge="1" parent="1" source="eXYQYFFCsGSePUWTJ8JB-5" target="eXYQYFFCsGSePUWTJ8JB-4">
          <mxGeometry relative="1" as="geometry">
            <mxPoint x="6950" y="-590" as="targetPoint" />
            <Array as="points">
              <mxPoint x="7000" y="-415" />
              <mxPoint x="7000" y="-590" />
            </Array>
          </mxGeometry>
        </mxCell>
        <mxCell id="eXYQYFFCsGSePUWTJ8JB-5" value="" style="ellipse;whiteSpace=wrap;html=1;rounded=0;fontColor=#007FFF;strokeColor=#007FFF;" vertex="1" parent="1">
          <mxGeometry x="7215.25" y="-440" width="49.5" height="50" as="geometry" />
        </mxCell>
      </root>
    </mxGraphModel>
  </diagram>
</mxfile>
